# xmcd
#
# Track frame offsets: 
#        150
#        12504
#        22954
#        33208
#        44513
#        54142
#        63523
#        73058
#        84549
#        94834
#        104498
#        114989
#        124923
#        133790
#        144119
#        153002
#        161486
#        169985
#        181849
#        191131
#
# Disc length: 2698 seconds
#
# Revision: 0
# Processed by: cddbd v1.5.2PL0 Copyright (c) Steve Scherf et al.
# Submitted via: ExactAudioCopy v0.90b4
#
DISCID=0a0a8814
DTITLE=Faron Young - 60 Greatest Hits and Favorites [CD2]
DYEAR=2012
DGENRE=Country
TTITLE0=Sweet Dreams
TTITLE1=Until I Met You
TTITLE2=I'll Be Satisfied With Love
TTITLE3=I Miss You Already (And You're Not Even Gone)
TTITLE4=I'm A Poor Boy
TTITLE5=You Call Everybody Darlin'
TTITLE6=I'm Gonna Live Some Before I Die
TTITLE7=The Shrine Of St. Cecilia
TTITLE8=How Long Has It Been
TTITLE9=Honey Stop (And Think Of Me)
TTITLE10=I Can't Dance
TTITLE11=Love Has Finally Come My Way
TTITLE12=Alone With You
TTITLE13=Every Time I'm Kissing You
TTITLE14=I Hate Myself
TTITLE15=That's The Way I Feel
TTITLE16=Last Night At A Party
TTITLE17=A Long Time Ago
TTITLE18=Let Old Mother Nature Have Her Way
TTITLE19=Chattanooga Shoeshine Boy
EXTD=
EXTT0=
EXTT1=
EXTT2=
EXTT3=
EXTT4=
EXTT5=
EXTT6=
EXTT7=
EXTT8=
EXTT9=
EXTT10=
EXTT11=
EXTT12=
EXTT13=
EXTT14=
EXTT15=
EXTT16=
EXTT17=
EXTT18=
EXTT19=
PLAYORDER=
